<svg width="72" height="67" fill="none" xmlns="http://www.w3.org/2000/svg"><rect opacity=".2" x="12" y="7" width="60" height="60" rx="30" fill="#B4DCF0"/><path fill-rule="evenodd" clip-rule="evenodd" d="M36.9 30.8h10.6l8 23.6H0l7.3-23.6h11.1l-3.3-4.4c-2.3-3.1-3.5-7-3.3-11C12.3 6.8 19.3 0 27.6 0a16.4 16.4 0 0112.5 26.4l-3.2 4.4zM14 15.5c-.2 3.4.9 6.8 2.9 9.5l10.7 14.6L38.3 25c2-2.7 3-6 2.9-9.5-.2-3.3-1.7-6.7-4-9.1a13.1 13.1 0 00-9.6-4.2c-8 0-13.2 6.8-13.6 13.3zM3 52.2h14.7v-4.9H4.5L3 52.1zM20 45v7.2h17.9l-.6-8.8h12.1L46 33.2h-5.9l.4 5-2.2.2-.5-5.3h-2.6l-7.6 10.3L20 33H8.9l-1.6 5.2h10.6v2.3H6.6L5.2 45H20zm19.8.5l.4 6.6h12.2l-2.2-6.5v-.1H39.8zM27.8 7a8.3 8.3 0 010 16.6 8.3 8.3 0 01-8.2-8.3c0-4.6 3.7-8.3 8.2-8.3zm0 2.2a6 6 0 00-6 6.1 6 6 0 006 6 6 6 0 006-6 6 6 0 00-6-6z" fill="url(#paint0_linear)"/><defs><linearGradient id="paint0_linear" x1="5.7" y1="60.2" x2="50.2" y2="16.4" gradientUnits="userSpaceOnUse"><stop stop-color="#008CB7"/><stop offset="1" stop-color="#A546BE"/></linearGradient></defs></svg>