<svg width="66" height="67" fill="none" xmlns="http://www.w3.org/2000/svg"><rect opacity=".2" x="6" y="7" width="60" height="60" rx="30" fill="#B4DCF0"/><path fill-rule="evenodd" clip-rule="evenodd" d="M31.9 42H2V8.5h29.9v3.8h2V4.7c0-2.6-2.1-4.7-4.7-4.7H4.7A4.7 4.7 0 000 4.7v44.8c0 2.6 2.1 4.7 4.7 4.7h24.5c2.6 0 4.7-2.1 4.7-4.7V37.6h-2V42zM2 6.4V4.7C2 3.2 3.2 2 4.7 2h24.5c1.5 0 2.7 1.2 2.7 2.7v1.7H2zm29.9 43.1c0 1.5-1.2 2.7-2.7 2.7H4.7A2.7 2.7 0 012 49.5v-5.4h29.9v5.4zM17 51c1.5 0 2.8-1.2 2.8-2.8 0-1.6-1.2-2.8-2.8-2.8a2.7 2.7 0 00-2.8 2.8c0 1.6 1.3 2.8 2.8 2.8zm0-3.7c.5 0 .9.4.9.9s-.4.9-.9.9a.9.9 0 01-.9-.9c0-.4.4-.9.9-.9zm5.5-32.2h18.4c2.6 0 4.7 2.1 4.8 4.6v10.5c0 2.3-1.7 4.3-4 4.6v3.4c0 .4-.2.7-.6.9l-.4.1a1 1 0 01-.7-.3l-4.4-4H22.5a4.7 4.7 0 01-4.7-4.7V19.8c0-2.6 2.1-4.7 4.7-4.7zm21.1 15V19.7c0-1.5-1.2-2.7-2.7-2.7H22.5a2.7 2.7 0 00-2.7 2.7v10.4c0 1.5 1.2 2.7 2.7 2.7h13.4c.3 0 .5.1.7.3l3 2.8v-2.1c0-.6.5-1 1-1h.3c1.5 0 2.7-1.2 2.7-2.7zm-4.2-9.2H24v1.9h15.4v-1.9zM24 27.1h15.4V29H24v-1.9z" fill="url(#paint0_linear)"/><defs><linearGradient id="paint0_linear" x1="4.7" y1="60" x2="48.1" y2="24.6" gradientUnits="userSpaceOnUse"><stop stop-color="#008CB7"/><stop offset="1" stop-color="#A546BE"/></linearGradient></defs></svg>