<svg width="72" height="67" fill="none" xmlns="http://www.w3.org/2000/svg"><rect opacity=".2" x="12" y="7" width="60" height="60" rx="30" fill="#B4DCF0"/><path fill-rule="evenodd" clip-rule="evenodd" d="M15 25H1c-.6 0-1-.4-1-1V12c0-.6.4-1 1-1h14l.4.1 4.8 2.9h4.2A18 18 0 1157 27.9V52h3v2H8v-2h3V41a3 3 0 013-3h4a3 3 0 013 3v11h2V34a3 3 0 013-3h3.6a18.5 18.5 0 01-5.1-9h-4.2l-4.8 2.9-.5.1zm1-2.8l3-1.8v-4.9l-3-1.8v8.5zM13 41v11h6V41c0-.6-.4-1-1-1h-4c-.6 0-1 .4-1 1zm12-7v18h6V34c0-.6-.4-1-1-1h-4c-.6 0-1 .4-1 1zm10 .6l-2-1V52h2V34.6zm2 .7V52h6V36h-1c-1.7 0-3.4-.2-5-.7zM47 52V35.3l-2 .4V52h2zm2 0h6V30.5a19.4 19.4 0 01-6 4.1V52zm9-34A16 16 0 0042 2a16 16 0 00-16 16 16 16 0 0016 16 16 16 0 0016-16zm-33.9-2H21v4h3.1v-4zM14 13H2v10h12V13zm42 5a14 14 0 01-14 14 14 14 0 01-14-14A14 14 0 0142 4a14 14 0 0114 14zm-19 5v5.9c1.6.7 3.3 1.1 5 1.1h1v-7c0-.6-.4-1-1-1h-4c-.6 0-1 .4-1 1zm12-8v12.7A12 12 0 0053.3 14H50c-.6 0-1 .4-1 1zm3.4-3A12 12 0 0042 6c-3.9 0-7.5 1.9-9.7 5A12 12 0 0035 27.7V23a3 3 0 013-3h4a3 3 0 013 3v6.6l2-.7V15a3 3 0 013-3h2.4z" fill="url(#paint0_linear)"/><defs><linearGradient id="paint0_linear" x1="6.2" y1="59.8" x2="50.2" y2="12.5" gradientUnits="userSpaceOnUse"><stop stop-color="#008CB7"/><stop offset="1" stop-color="#A546BE"/></linearGradient></defs></svg>